<svg xmlns="http://www.w3.org/2000/svg" width="16" height="44" viewBox="0 0 16 44"><g><g><path fill="#5da8ef" d="M16 20.58c0 13.508-4.967 22.664-5.178 23.046l-.206.374H5.384l-.206-.374C4.966 43.244 0 34.088 0 20.58 0 7.211 5.679 0 8 0c2.321 0 8 7.211 8 20.58zm-4.727 18.38c-.142-.59-.822-2.646-3.645-4.286-2.565-1.49-4.252-3.268-5.366-4.93 1.19 6.806 3.35 11.52 4.005 12.836h1.006v-4.967h1.454v4.967h1.006c.29-.58.874-1.826 1.54-3.62zm1.839-6.146c-.014-.046-.8-2.625-5.473-5.23-3.276-1.827-5.12-3.98-6.161-5.866.02.88.056 1.742.117 2.58.127.976 1.034 5.82 6.778 9.156 1.908 1.11 2.988 2.412 3.6 3.47a53.16 53.16 0 0 0 1.139-4.11zm.458-2.13c.574-2.971.975-6.374.975-10.104 0-11.176-3.956-17.074-5.818-18.695v22.244H7.273V1.885c-1.656 1.442-4.965 5.921-5.68 15.147h.001c-.006 0-.09 5.484 6.767 9.307 2.82 1.573 4.367 3.176 5.21 4.345z"/></g></g></svg>